<svg width="32" height="32" viewBox="0 0 32 32" fill="none" xmlns="http://www.w3.org/2000/svg">
<g clip-path="url(#clip0_9416_29702)">
<path d="M31.0487 13.7305H22.6118C22.2927 13.7305 22.1316 13.3414 22.3581 13.1131L28.3241 7.09886C28.6933 6.7266 28.6933 6.11537 28.3241 5.74312L26.3045 3.70721C25.9352 3.33496 25.3289 3.33496 24.9596 3.70721L18.9936 9.72148C18.7672 9.94973 18.3812 9.78735 18.3812 9.46565V0.958974C18.3812 0.431998 17.9527 0 17.43 0H14.5731C14.0503 0 13.6218 0.431998 13.6218 0.958974V9.46412C13.6218 9.78582 13.2358 9.9482 13.0094 9.71995L7.04188 3.70568C6.67262 3.33343 6.06629 3.33343 5.69703 3.70568L3.67746 5.74159C3.3082 6.11384 3.3082 6.72507 3.67746 7.09732L9.64346 13.1116C9.86988 13.3398 9.7088 13.7289 9.38969 13.7289H0.951277C0.428531 13.7289 0 14.1609 0 14.6879V17.5679C0 18.0949 0.428531 18.5269 0.951277 18.5269H3.99202C5.92801 18.5269 7.7637 17.6292 8.93836 16.0789C10.5613 13.9373 13.1203 12.554 16.0015 12.554C18.8827 12.554 21.4417 13.9358 23.0647 16.0789C24.2393 17.6292 26.075 18.5269 28.011 18.5269H31.0518C31.5745 18.5269 32.003 18.0949 32.003 17.5679V14.6879C32.003 14.1609 31.5745 13.7289 31.0518 13.7289L31.0487 13.7305Z" fill="white"/>
<path d="M26.8714 27.9883C26.572 28.2656 26.262 28.5336 25.9414 28.7879L26.8714 27.9883Z" fill="white"/>
<path d="M28.5412 26.1797C28.3056 26.4769 28.0594 26.7649 27.8057 27.0437L28.5412 26.1797Z" fill="white"/>
<path d="M28.5431 26.1805L27.8076 27.0445L26.873 27.9867L25.943 28.7863C23.9432 30.3795 21.5605 31.5024 18.9543 31.9911C18.6565 32.0477 18.3814 31.8134 18.3814 31.507V21.81C18.3814 20.5033 17.3648 19.3973 16.0686 19.362C14.7724 19.3268 13.622 20.4129 13.622 21.7595V31.5054C13.622 31.8118 13.347 32.0462 13.0491 31.9895C10.4445 31.5009 8.06024 30.378 6.06043 28.7848L5.13195 27.9867L4.20194 27.0491L3.46037 26.179C3.33425 25.8374 3.40719 25.4376 3.67768 25.1633L11.3836 17.3951C11.4505 17.3276 11.525 17.2725 11.604 17.2296C12.7042 16.047 14.2679 15.3086 16.0033 15.3086C17.7387 15.3086 19.3023 16.047 20.401 17.2296C20.48 17.2725 20.5545 17.3276 20.6214 17.3951L28.3273 25.1633C28.5978 25.436 28.6707 25.8359 28.5461 26.1775L28.5431 26.1805Z" fill="white"/>
<path d="M3.45898 26.1816L4.20056 27.0518C3.94374 26.7714 3.69604 26.4804 3.45898 26.1816Z" fill="white"/>
<path d="M5.13086 27.9902L6.05934 28.7884C5.74022 28.5341 5.43022 28.2675 5.13086 27.9902Z" fill="white"/>
<path d="M25.9414 28.7879L26.8714 27.9883C26.572 28.2656 26.262 28.5336 25.9414 28.7879Z" fill="white"/>
<path d="M28.5412 26.1797C28.3056 26.4769 28.0594 26.7649 27.8057 27.0437L28.5412 26.1797Z" fill="white"/>
<path d="M4.20056 27.0518C3.94374 26.7714 3.69604 26.4804 3.45898 26.1816L4.20056 27.0518Z" fill="white"/>
<path d="M6.05934 28.7884C5.74022 28.5341 5.43022 28.2675 5.13086 27.9902L6.05934 28.7884Z" fill="white"/>
</g>
<defs>
<clipPath id="clip0_9416_29702">
<rect width="32" height="32" fill="white"/>
</clipPath>
</defs>
</svg>
