<svg width="17" height="15" viewBox="0 0 17 15" fill="none" xmlns="http://www.w3.org/2000/svg">
<path d="M2.66667 1.33398L1 3.00065" stroke="white" stroke-width="1.66667" stroke-linecap="round"/>
<path d="M14.3333 1.33398L16 3.00065" stroke="white" stroke-width="1.66667" stroke-linecap="round"/>
<path fill-rule="evenodd" clip-rule="evenodd" d="M8.49967 14.6673C12.1816 14.6673 15.1663 11.6825 15.1663 8.00065C15.1663 4.31875 12.1816 1.33398 8.49967 1.33398C4.81778 1.33398 1.83301 4.31875 1.83301 8.00065C1.83301 11.6825 4.81778 14.6673 8.49967 14.6673ZM10.8176 6.43764C11.1051 6.07825 11.0468 5.55384 10.6874 5.26634C10.3281 4.97883 9.80364 5.0371 9.51614 5.39648L8.32675 6.88322L6.46244 5.64035C6.0795 5.38506 5.56211 5.48854 5.30682 5.87148C5.05152 6.25442 5.155 6.77181 5.53794 7.0271L7.87902 8.58782C8.32859 8.88753 8.9327 8.79374 9.27024 8.37182L10.8176 6.43764Z" fill="white"/>
</svg>
